<mxfile host="app.diagrams.net" modified="2020-10-23T10:48:36.443Z" agent="5.0 (Macintosh; Intel Mac OS X 10_13_4) AppleWebKit/537.36 (KHTML, like Gecko) Chrome/86.0.4240.75 Safari/537.36" etag="uvApS3hy84ZpluA9bMIK" version="13.8.1" type="github">
  <diagram id="KjAJDcUenq3D609lwIE-" name="Page-1">
    <mxGraphModel dx="881" dy="491" grid="1" gridSize="10" guides="1" tooltips="1" connect="1" arrows="1" fold="1" page="1" pageScale="1" pageWidth="827" pageHeight="1169" math="0" shadow="0">
      <root>
        <mxCell id="0" />
        <mxCell id="1" parent="0" />
        <mxCell id="bYV7ASIVTbc_70zCA1bl-14" style="edgeStyle=orthogonalEdgeStyle;rounded=0;orthogonalLoop=1;jettySize=auto;html=1;entryX=0.5;entryY=1;entryDx=0;entryDy=0;" edge="1" parent="1" target="bYV7ASIVTbc_70zCA1bl-4">
          <mxGeometry relative="1" as="geometry">
            <mxPoint x="414" y="240" as="sourcePoint" />
          </mxGeometry>
        </mxCell>
        <mxCell id="bYV7ASIVTbc_70zCA1bl-1" value="補習班" style="shape=umlActor;verticalLabelPosition=bottom;verticalAlign=top;html=1;outlineConnect=0;" vertex="1" parent="1">
          <mxGeometry x="399" y="250" width="30" height="60" as="geometry" />
        </mxCell>
        <mxCell id="bYV7ASIVTbc_70zCA1bl-2" value="新增、刪除使用者" style="ellipse;whiteSpace=wrap;html=1;" vertex="1" parent="1">
          <mxGeometry x="180" y="320" width="120" height="50" as="geometry" />
        </mxCell>
        <mxCell id="bYV7ASIVTbc_70zCA1bl-3" value="新增、刪除課程" style="ellipse;whiteSpace=wrap;html=1;" vertex="1" parent="1">
          <mxGeometry x="180" y="220" width="120" height="50" as="geometry" />
        </mxCell>
        <mxCell id="bYV7ASIVTbc_70zCA1bl-4" value="調整課程人員" style="ellipse;whiteSpace=wrap;html=1;" vertex="1" parent="1">
          <mxGeometry x="354" y="140" width="120" height="50" as="geometry" />
        </mxCell>
        <mxCell id="bYV7ASIVTbc_70zCA1bl-5" value="紀錄出缺席&lt;br&gt;（*NFC）" style="ellipse;whiteSpace=wrap;html=1;" vertex="1" parent="1">
          <mxGeometry x="530" y="220" width="120" height="50" as="geometry" />
        </mxCell>
        <mxCell id="bYV7ASIVTbc_70zCA1bl-6" value="教室分配" style="ellipse;whiteSpace=wrap;html=1;" vertex="1" parent="1">
          <mxGeometry x="530" y="320" width="120" height="50" as="geometry" />
        </mxCell>
        <mxCell id="bYV7ASIVTbc_70zCA1bl-7" value="開放補課時段" style="ellipse;whiteSpace=wrap;html=1;" vertex="1" parent="1">
          <mxGeometry x="354" y="370" width="120" height="50" as="geometry" />
        </mxCell>
        <mxCell id="bYV7ASIVTbc_70zCA1bl-16" value="" style="endArrow=classic;html=1;entryX=0;entryY=0.5;entryDx=0;entryDy=0;" edge="1" parent="1" target="bYV7ASIVTbc_70zCA1bl-5">
          <mxGeometry width="50" height="50" relative="1" as="geometry">
            <mxPoint x="440" y="270" as="sourcePoint" />
            <mxPoint x="440" y="300" as="targetPoint" />
          </mxGeometry>
        </mxCell>
        <mxCell id="bYV7ASIVTbc_70zCA1bl-17" value="" style="endArrow=classic;html=1;entryX=1;entryY=0.5;entryDx=0;entryDy=0;" edge="1" parent="1" target="bYV7ASIVTbc_70zCA1bl-3">
          <mxGeometry width="50" height="50" relative="1" as="geometry">
            <mxPoint x="390" y="270" as="sourcePoint" />
            <mxPoint x="540" y="255" as="targetPoint" />
          </mxGeometry>
        </mxCell>
        <mxCell id="bYV7ASIVTbc_70zCA1bl-18" value="" style="endArrow=classic;html=1;entryX=0;entryY=0.5;entryDx=0;entryDy=0;" edge="1" parent="1" target="bYV7ASIVTbc_70zCA1bl-6">
          <mxGeometry width="50" height="50" relative="1" as="geometry">
            <mxPoint x="440" y="290" as="sourcePoint" />
            <mxPoint x="550" y="265" as="targetPoint" />
          </mxGeometry>
        </mxCell>
        <mxCell id="bYV7ASIVTbc_70zCA1bl-19" value="" style="endArrow=classic;html=1;entryX=1;entryY=0.5;entryDx=0;entryDy=0;" edge="1" parent="1" target="bYV7ASIVTbc_70zCA1bl-2">
          <mxGeometry width="50" height="50" relative="1" as="geometry">
            <mxPoint x="390" y="290" as="sourcePoint" />
            <mxPoint x="560" y="275" as="targetPoint" />
          </mxGeometry>
        </mxCell>
        <mxCell id="bYV7ASIVTbc_70zCA1bl-20" value="" style="endArrow=classic;html=1;entryX=0.5;entryY=0;entryDx=0;entryDy=0;" edge="1" parent="1" target="bYV7ASIVTbc_70zCA1bl-7">
          <mxGeometry width="50" height="50" relative="1" as="geometry">
            <mxPoint x="414" y="340" as="sourcePoint" />
            <mxPoint x="570" y="285" as="targetPoint" />
          </mxGeometry>
        </mxCell>
      </root>
    </mxGraphModel>
  </diagram>
</mxfile>
